<svg width="10" height="4" viewBox="0 0 10 4" fill="none" xmlns="http://www.w3.org/2000/svg">
<mask id="path-1-inside-1_89_149" fill="white">
<path d="M10 0L5.86585 3.68069C5.38766 4.10644 4.61235 4.10644 4.13416 3.68069L0 0"/>
</mask>
<path d="M5.86585 3.68069L5.20089 2.93381L5.20088 2.93382L5.86585 3.68069ZM4.13416 3.68069L4.79913 2.93382L4.79912 2.93381L4.13416 3.68069ZM9.33504 -0.746881L5.20089 2.93381L6.53081 4.42757L10.665 0.746881L9.33504 -0.746881ZM5.20088 2.93382C5.10177 3.02206 4.89824 3.02206 4.79913 2.93382L3.46919 4.42756C4.32646 5.19081 5.67355 5.19081 6.53082 4.42756L5.20088 2.93382ZM4.79912 2.93381L0.664957 -0.746882L-0.664957 0.746882L3.46921 4.42757L4.79912 2.93381Z" fill="#262626" mask="url(#path-1-inside-1_89_149)"/>
</svg>
