<svg width="19" height="20" viewBox="0 0 19 20" fill="none" xmlns="http://www.w3.org/2000/svg">
<path d="M6.05625 11.7021C5.83194 11.7021 5.64392 11.6262 5.49219 11.4745C5.34045 11.3227 5.26458 11.1347 5.26458 10.9104C5.26458 10.6861 5.34045 10.4981 5.49219 10.3463C5.64392 10.1946 5.83194 10.1187 6.05625 10.1187C6.28056 10.1187 6.46858 10.1946 6.62031 10.3463C6.77205 10.4981 6.84792 10.6861 6.84792 10.9104C6.84792 11.1347 6.77205 11.3227 6.62031 11.4745C6.46858 11.6262 6.28056 11.7021 6.05625 11.7021ZM9.55937 11.7021C9.33507 11.7021 9.14705 11.6262 8.99531 11.4745C8.84358 11.3227 8.76771 11.1347 8.76771 10.9104C8.76771 10.6861 8.84358 10.4981 8.99531 10.3463C9.14705 10.1946 9.33507 10.1187 9.55937 10.1187C9.78368 10.1187 9.9717 10.1946 10.1234 10.3463C10.2752 10.4981 10.351 10.6861 10.351 10.9104C10.351 11.1347 10.2752 11.3227 10.1234 11.4745C9.9717 11.6262 9.78368 11.7021 9.55937 11.7021ZM12.924 11.7021C12.6997 11.7021 12.5116 11.6262 12.3599 11.4745C12.2082 11.3227 12.1323 11.1347 12.1323 10.9104C12.1323 10.6861 12.2082 10.4981 12.3599 10.3463C12.5116 10.1946 12.6997 10.1187 12.924 10.1187C13.1483 10.1187 13.3363 10.1946 13.488 10.3463C13.6398 10.4981 13.7156 10.6861 13.7156 10.9104C13.7156 11.1347 13.6398 11.3227 13.488 11.4745C13.3363 11.6262 13.1483 11.7021 12.924 11.7021ZM3.5625 17.9166C3.24583 17.9166 2.96875 17.7979 2.73125 17.5604C2.49375 17.3229 2.375 17.0458 2.375 16.7291V4.45831C2.375 4.14165 2.49375 3.86456 2.73125 3.62706C2.96875 3.38956 3.24583 3.27081 3.5625 3.27081H4.84896V2.08331H6.13542V3.27081H12.8646V2.08331H14.151V3.27081H15.4375C15.7542 3.27081 16.0312 3.38956 16.2688 3.62706C16.5062 3.86456 16.625 4.14165 16.625 4.45831V16.7291C16.625 17.0458 16.5062 17.3229 16.2688 17.5604C16.0312 17.7979 15.7542 17.9166 15.4375 17.9166H3.5625ZM3.5625 16.7291H15.4375V8.21873H3.5625V16.7291ZM3.5625 7.03123H15.4375V4.45831H3.5625V7.03123Z" fill="#434343"/>
</svg>
