<svg width="19" height="20" viewBox="0 0 19 20" fill="none" xmlns="http://www.w3.org/2000/svg">
<path d="M3.5625 17.9166C3.24583 17.9166 2.96875 17.7979 2.73125 17.5604C2.49375 17.3229 2.375 17.0458 2.375 16.7291V4.45831C2.375 4.14165 2.49375 3.86456 2.73125 3.62706C2.96875 3.38956 3.24583 3.27081 3.5625 3.27081H4.84896V2.08331H6.13542V3.27081H12.8646V2.08331H14.151V3.27081H15.4375C15.7542 3.27081 16.0312 3.38956 16.2687 3.62706C16.5062 3.86456 16.625 4.14165 16.625 4.45831V16.7291C16.625 17.0458 16.5062 17.3229 16.2687 17.5604C16.0312 17.7979 15.7542 17.9166 15.4375 17.9166H3.5625ZM3.5625 16.7291H15.4375V8.21873H3.5625V16.7291ZM3.5625 7.03123H15.4375V4.45831H3.5625V7.03123Z" fill="#434343"/>
</svg>
