<svg width="50" height="50" viewBox="0 0 50 50" fill="none" xmlns="http://www.w3.org/2000/svg">
<path d="M22.0837 34.5834L36.7712 19.8959L33.8545 16.9792L22.0837 28.75L16.1462 22.8125L13.2295 25.7292L22.0837 34.5834ZM25.0003 45.8334C22.1184 45.8334 19.41 45.2865 16.8753 44.1927C14.3406 43.099 12.1357 41.6146 10.2607 39.7396C8.38574 37.8646 6.90137 35.6597 5.80762 33.125C4.71387 30.5903 4.16699 27.882 4.16699 25C4.16699 22.1181 4.71387 19.4097 5.80762 16.875C6.90137 14.3403 8.38574 12.1354 10.2607 10.2604C12.1357 8.38544 14.3406 6.90106 16.8753 5.80731C19.41 4.71356 22.1184 4.16669 25.0003 4.16669C27.8823 4.16669 30.5906 4.71356 33.1253 5.80731C35.66 6.90106 37.8649 8.38544 39.7399 10.2604C41.6149 12.1354 43.0993 14.3403 44.193 16.875C45.2868 19.4097 45.8337 22.1181 45.8337 25C45.8337 27.882 45.2868 30.5903 44.193 33.125C43.0993 35.6597 41.6149 37.8646 39.7399 39.7396C37.8649 41.6146 35.66 43.099 33.1253 44.1927C30.5906 45.2865 27.8823 45.8334 25.0003 45.8334ZM25.0003 41.6667C29.6531 41.6667 33.5941 40.0521 36.8232 36.8229C40.0524 33.5938 41.667 29.6528 41.667 25C41.667 20.3472 40.0524 16.4063 36.8232 13.1771C33.5941 9.94794 29.6531 8.33335 25.0003 8.33335C20.3475 8.33335 16.4066 9.94794 13.1774 13.1771C9.94824 16.4063 8.33366 20.3472 8.33366 25C8.33366 29.6528 9.94824 33.5938 13.1774 36.8229C16.4066 40.0521 20.3475 41.6667 25.0003 41.6667Z" fill="#28A745"/>
</svg>
