<svg width="50" height="50" viewBox="0 0 50 50" fill="none" xmlns="http://www.w3.org/2000/svg">
<path d="M5.72415 37.5C4.72033 37.5 3.86252 37.1425 3.15072 36.4276C2.43891 35.7127 2.08301 34.8533 2.08301 33.8495C2.08301 32.8457 2.43874 31.9878 3.1502 31.276C3.862 30.5642 4.71756 30.2083 5.71686 30.2083C5.89846 30.2083 6.07606 30.217 6.24967 30.2344C6.42329 30.2517 6.64898 30.2951 6.92676 30.3646L17.3434 19.9479C17.274 19.6701 17.2306 19.4444 17.2132 19.2708C17.1959 19.0972 17.1872 18.9196 17.1872 18.738C17.1872 17.7387 17.5446 16.8832 18.2596 16.1714C18.9745 15.4599 19.8339 15.1042 20.8377 15.1042C21.8415 15.1042 22.6993 15.4623 23.4111 16.1786C24.1229 16.8953 24.4788 17.7566 24.4788 18.7625C24.4788 18.8236 24.4268 19.2188 24.3226 19.9479L30.0518 25.6771C30.3295 25.6076 30.5552 25.5642 30.7288 25.5469C30.9024 25.5295 31.0761 25.5208 31.2497 25.5208C31.4233 25.5208 31.5969 25.5295 31.7705 25.5469C31.9441 25.5642 32.1698 25.6076 32.4476 25.6771L40.7809 17.3438C40.7115 17.066 40.6681 16.8403 40.6507 16.6667C40.6334 16.4931 40.6247 16.3155 40.6247 16.1339C40.6247 15.1345 40.9821 14.279 41.6971 13.5672C42.412 12.8557 43.2714 12.5 44.2752 12.5C45.279 12.5 46.1368 12.8575 46.8486 13.5724C47.5604 14.2873 47.9163 15.1467 47.9163 16.1505C47.9163 17.1543 47.5606 18.0122 46.8492 18.724C46.1373 19.4358 45.2818 19.7917 44.2825 19.7917C44.1009 19.7917 43.9233 19.783 43.7497 19.7656C43.5761 19.7483 43.3504 19.7049 43.0726 19.6354L34.7393 27.9688C34.8087 28.2465 34.8521 28.4722 34.8695 28.6458C34.8868 28.8194 34.8955 28.997 34.8955 29.1786C34.8955 30.178 34.538 31.0335 33.8231 31.7453C33.1082 32.4568 32.2488 32.8125 31.245 32.8125C30.2412 32.8125 29.3834 32.4568 28.6715 31.7453C27.9597 31.0335 27.6038 30.178 27.6038 29.1786C27.6038 28.997 27.6125 28.8194 27.6299 28.6458C27.6472 28.4722 27.6906 28.2465 27.7601 27.9688L22.0309 22.2396C21.7531 22.309 21.5275 22.3524 21.3538 22.3698C21.1802 22.3872 21.0023 22.3958 20.82 22.3958C20.7592 22.3958 20.3643 22.3438 19.6351 22.2396L9.21842 32.6562C9.28787 32.934 9.33127 33.1597 9.34863 33.3333C9.36599 33.5069 9.37467 33.6845 9.37467 33.8661C9.37467 34.8655 9.01721 35.721 8.30228 36.4328C7.58735 37.1443 6.72797 37.5 5.72415 37.5Z" fill="#377DFF"/>
</svg>
