<svg width="50" height="50" viewBox="0 0 50 50" fill="none" xmlns="http://www.w3.org/2000/svg">
<g clip-path="url(#clip0_862_587)">
<mask id="path-1-outside-1_862_587" maskUnits="userSpaceOnUse" x="-1" y="-1" width="52" height="52" fill="black">
<rect fill="white" x="-1" y="-1" width="52" height="52"/>
<path d="M49.714 32.8419L41.8351 24.963L44.8614 21.9363C46.3497 20.4478 46.3497 18.0259 44.8614 16.5375C44.3051 15.9812 43.6075 15.6178 42.8494 15.4807C43.0289 15.0338 43.123 14.552 43.123 14.0558C43.123 13.0362 42.7259 12.0775 42.0049 11.3564C41.404 10.7554 40.6507 10.3971 39.8683 10.2814C39.9943 9.89939 40.0597 9.49559 40.0597 9.08162C40.0597 8.062 39.6626 7.10331 38.9416 6.38231C38.2206 5.66122 37.2619 5.26415 36.2422 5.26415C36.2122 5.26415 36.1823 5.26444 36.1524 5.26513C36.2457 4.18085 35.8782 3.06415 35.0503 2.23613C33.5618 0.747655 31.1399 0.747655 29.6514 2.23613L28.9065 2.98105C28.7321 2.29941 28.378 1.67422 27.8675 1.16357C27.1171 0.41328 26.1194 0 25.0581 0C23.9969 0 22.9991 0.41328 22.2487 1.16367L20.6066 2.80566H17.3548C15.2498 2.80566 13.5373 4.51816 13.5373 6.62313C13.5373 7.29999 13.7151 7.93573 14.0254 8.48748H13.5137C11.4087 8.48748 9.69619 10.2 9.69619 12.305C9.69619 13.8371 10.6039 15.1605 11.9095 15.7677C11.4606 16.3936 11.1953 17.1595 11.1953 17.9868C11.1953 19.515 12.0983 20.8356 13.3985 21.445C12.9478 22.0717 12.6811 22.8394 12.6811 23.6686C12.6811 24.0833 12.7485 24.4822 12.8713 24.8563L0.286054 37.4416C0.101387 37.6264 -0.0016404 37.8774 1.97568e-05 38.1385C0.00177757 38.3997 0.108027 38.6493 0.295039 38.8317L11.4734 49.7229C11.6632 49.9077 11.9091 49.9999 12.1549 49.9999C12.405 49.9999 12.6549 49.9044 12.8454 49.7139L17.7931 44.7663C18.1744 44.385 18.1745 43.7666 17.7931 43.3852C17.4116 43.0039 16.7933 43.0039 16.412 43.3852L12.146 47.6512L2.36671 38.1231L13.967 26.5228C14.6413 27.1216 15.5279 27.4863 16.4985 27.4863H20.7978C22.9028 27.4863 24.6153 25.7738 24.6153 23.6688C24.6153 22.8396 24.3487 22.0718 23.8979 21.4452C25.198 20.8358 26.101 19.5152 26.101 17.987C26.101 17.1597 25.8357 16.3938 25.3869 15.7679C26.6925 15.1607 27.6002 13.8373 27.6002 12.3052C27.6002 10.8841 26.8191 9.64275 25.6642 8.98563L31.0325 3.61747C31.3845 3.26533 31.8528 3.07138 32.3507 3.07138C32.8488 3.07138 33.317 3.26533 33.6691 3.61747C34.3961 4.34433 34.3961 5.52714 33.6691 6.25409L32.2336 7.69168C31.8564 8.07508 31.8601 8.69119 32.2419 9.07C32.6236 9.44871 33.2398 9.44754 33.6201 9.06727L34.9238 7.76356C35.6506 7.03671 36.8334 7.03661 37.5604 7.76356C38.2873 8.49051 38.2873 9.67332 37.5604 10.4002L35.3016 12.661C34.9209 13.0427 34.9213 13.6606 35.3028 14.0417C35.6841 14.4225 36.3021 14.4224 36.6835 14.0413L37.9871 12.7377C38.7139 12.0107 39.8966 12.0107 40.6237 12.7377C40.9757 13.0897 41.1697 13.558 41.1697 14.0559C41.1697 14.554 40.9757 15.0221 40.6237 15.3743L38.1584 17.8418C37.7775 18.2234 37.7779 18.8415 38.1593 19.2225C38.5408 19.6036 39.1588 19.6035 39.5401 19.2222L40.8438 17.9186C41.1958 17.5665 41.6641 17.3725 42.1622 17.3725C42.6601 17.3725 43.1284 17.5665 43.4804 17.9186C44.2074 18.6455 44.2074 19.8283 43.4804 20.5552L35.1106 28.9255C33.5501 30.4861 31.3934 31.2759 29.1945 31.0921C28.9084 31.0681 28.6259 31.1716 28.4227 31.3747L22.653 37.1445C22.2716 37.5258 22.2716 38.1442 22.653 38.5256C22.8437 38.7163 23.0936 38.8116 23.3435 38.8116C23.5934 38.8116 23.8434 38.7162 24.0341 38.5256L26.8606 35.6991L40.8755 49.714C41.0602 49.8986 41.3092 50 41.5661 50C41.6204 50 41.6752 49.9955 41.7297 49.9861C42.0417 49.9331 42.3087 49.7321 42.4459 49.447L49.9033 33.9561C50.0833 33.5822 50.0074 33.1354 49.714 32.8419ZM23.6299 2.54472C24.0113 2.16318 24.5186 1.95312 25.0582 1.95312C25.5977 1.95312 26.105 2.16328 26.4864 2.54482C26.8678 2.92636 27.0781 3.43359 27.0781 3.97304C27.0781 4.5123 26.8681 5.01933 26.487 5.40077L24.0643 7.82332C23.3949 8.49286 22.3668 8.60946 21.5643 8.10721C21.0397 7.77889 20.6989 7.23788 20.6291 6.62294C20.5593 6.008 20.7702 5.40438 21.2078 4.96679L23.6299 2.54472ZM17.3549 4.75888H19.0149C18.7235 5.40224 18.606 6.11854 18.6884 6.84335C18.7558 7.43739 18.9525 7.99598 19.2569 8.48758H17.3549C16.3268 8.48758 15.4905 7.65125 15.4905 6.62323C15.4905 5.5952 16.3268 4.75888 17.3549 4.75888ZM20.7978 25.5332H16.4985C15.4705 25.5332 14.6342 24.6968 14.6342 23.6688C14.6342 22.6408 15.4705 21.8044 16.4985 21.8044H20.7978C21.8259 21.8044 22.6622 22.6408 22.6622 23.6688C22.6622 24.6968 21.8259 25.5332 20.7978 25.5332ZM22.2837 19.8513H15.0128C13.9848 19.8513 13.1484 19.015 13.1484 17.987C13.1484 16.959 13.9848 16.1226 15.0128 16.1226H22.2837C23.3117 16.1226 24.148 16.959 24.148 17.987C24.148 19.015 23.3117 19.8513 22.2837 19.8513ZM23.7827 14.1694H13.5137C12.4856 14.1694 11.6493 13.3331 11.6493 12.3051C11.6493 11.277 12.4856 10.4407 13.5137 10.4407H23.7828C24.8108 10.4407 25.6471 11.277 25.6471 12.3051C25.6471 13.3331 24.8107 14.1694 23.7827 14.1694ZM41.2831 47.3595L28.2416 34.3179L29.4937 33.0658C32.1047 33.1563 34.6332 32.1648 36.4915 30.3066L40.4539 26.3442L47.8429 33.7331L41.2831 47.3595Z"/>
</mask>
<path d="M49.714 32.8419L41.8351 24.963L44.8614 21.9363C46.3497 20.4478 46.3497 18.0259 44.8614 16.5375C44.3051 15.9812 43.6075 15.6178 42.8494 15.4807C43.0289 15.0338 43.123 14.552 43.123 14.0558C43.123 13.0362 42.7259 12.0775 42.0049 11.3564C41.404 10.7554 40.6507 10.3971 39.8683 10.2814C39.9943 9.89939 40.0597 9.49559 40.0597 9.08162C40.0597 8.062 39.6626 7.10331 38.9416 6.38231C38.2206 5.66122 37.2619 5.26415 36.2422 5.26415C36.2122 5.26415 36.1823 5.26444 36.1524 5.26513C36.2457 4.18085 35.8782 3.06415 35.0503 2.23613C33.5618 0.747655 31.1399 0.747655 29.6514 2.23613L28.9065 2.98105C28.7321 2.29941 28.378 1.67422 27.8675 1.16357C27.1171 0.41328 26.1194 0 25.0581 0C23.9969 0 22.9991 0.41328 22.2487 1.16367L20.6066 2.80566H17.3548C15.2498 2.80566 13.5373 4.51816 13.5373 6.62313C13.5373 7.29999 13.7151 7.93573 14.0254 8.48748H13.5137C11.4087 8.48748 9.69619 10.2 9.69619 12.305C9.69619 13.8371 10.6039 15.1605 11.9095 15.7677C11.4606 16.3936 11.1953 17.1595 11.1953 17.9868C11.1953 19.515 12.0983 20.8356 13.3985 21.445C12.9478 22.0717 12.6811 22.8394 12.6811 23.6686C12.6811 24.0833 12.7485 24.4822 12.8713 24.8563L0.286054 37.4416C0.101387 37.6264 -0.0016404 37.8774 1.97568e-05 38.1385C0.00177757 38.3997 0.108027 38.6493 0.295039 38.8317L11.4734 49.7229C11.6632 49.9077 11.9091 49.9999 12.1549 49.9999C12.405 49.9999 12.6549 49.9044 12.8454 49.7139L17.7931 44.7663C18.1744 44.385 18.1745 43.7666 17.7931 43.3852C17.4116 43.0039 16.7933 43.0039 16.412 43.3852L12.146 47.6512L2.36671 38.1231L13.967 26.5228C14.6413 27.1216 15.5279 27.4863 16.4985 27.4863H20.7978C22.9028 27.4863 24.6153 25.7738 24.6153 23.6688C24.6153 22.8396 24.3487 22.0718 23.8979 21.4452C25.198 20.8358 26.101 19.5152 26.101 17.987C26.101 17.1597 25.8357 16.3938 25.3869 15.7679C26.6925 15.1607 27.6002 13.8373 27.6002 12.3052C27.6002 10.8841 26.8191 9.64275 25.6642 8.98563L31.0325 3.61747C31.3845 3.26533 31.8528 3.07138 32.3507 3.07138C32.8488 3.07138 33.317 3.26533 33.6691 3.61747C34.3961 4.34433 34.3961 5.52714 33.6691 6.25409L32.2336 7.69168C31.8564 8.07508 31.8601 8.69119 32.2419 9.07C32.6236 9.44871 33.2398 9.44754 33.6201 9.06727L34.9238 7.76356C35.6506 7.03671 36.8334 7.03661 37.5604 7.76356C38.2873 8.49051 38.2873 9.67332 37.5604 10.4002L35.3016 12.661C34.9209 13.0427 34.9213 13.6606 35.3028 14.0417C35.6841 14.4225 36.3021 14.4224 36.6835 14.0413L37.9871 12.7377C38.7139 12.0107 39.8966 12.0107 40.6237 12.7377C40.9757 13.0897 41.1697 13.558 41.1697 14.0559C41.1697 14.554 40.9757 15.0221 40.6237 15.3743L38.1584 17.8418C37.7775 18.2234 37.7779 18.8415 38.1593 19.2225C38.5408 19.6036 39.1588 19.6035 39.5401 19.2222L40.8438 17.9186C41.1958 17.5665 41.6641 17.3725 42.1622 17.3725C42.6601 17.3725 43.1284 17.5665 43.4804 17.9186C44.2074 18.6455 44.2074 19.8283 43.4804 20.5552L35.1106 28.9255C33.5501 30.4861 31.3934 31.2759 29.1945 31.0921C28.9084 31.0681 28.6259 31.1716 28.4227 31.3747L22.653 37.1445C22.2716 37.5258 22.2716 38.1442 22.653 38.5256C22.8437 38.7163 23.0936 38.8116 23.3435 38.8116C23.5934 38.8116 23.8434 38.7162 24.0341 38.5256L26.8606 35.6991L40.8755 49.714C41.0602 49.8986 41.3092 50 41.5661 50C41.6204 50 41.6752 49.9955 41.7297 49.9861C42.0417 49.9331 42.3087 49.7321 42.4459 49.447L49.9033 33.9561C50.0833 33.5822 50.0074 33.1354 49.714 32.8419ZM23.6299 2.54472C24.0113 2.16318 24.5186 1.95312 25.0582 1.95312C25.5977 1.95312 26.105 2.16328 26.4864 2.54482C26.8678 2.92636 27.0781 3.43359 27.0781 3.97304C27.0781 4.5123 26.8681 5.01933 26.487 5.40077L24.0643 7.82332C23.3949 8.49286 22.3668 8.60946 21.5643 8.10721C21.0397 7.77889 20.6989 7.23788 20.6291 6.62294C20.5593 6.008 20.7702 5.40438 21.2078 4.96679L23.6299 2.54472ZM17.3549 4.75888H19.0149C18.7235 5.40224 18.606 6.11854 18.6884 6.84335C18.7558 7.43739 18.9525 7.99598 19.2569 8.48758H17.3549C16.3268 8.48758 15.4905 7.65125 15.4905 6.62323C15.4905 5.5952 16.3268 4.75888 17.3549 4.75888ZM20.7978 25.5332H16.4985C15.4705 25.5332 14.6342 24.6968 14.6342 23.6688C14.6342 22.6408 15.4705 21.8044 16.4985 21.8044H20.7978C21.8259 21.8044 22.6622 22.6408 22.6622 23.6688C22.6622 24.6968 21.8259 25.5332 20.7978 25.5332ZM22.2837 19.8513H15.0128C13.9848 19.8513 13.1484 19.015 13.1484 17.987C13.1484 16.959 13.9848 16.1226 15.0128 16.1226H22.2837C23.3117 16.1226 24.148 16.959 24.148 17.987C24.148 19.015 23.3117 19.8513 22.2837 19.8513ZM23.7827 14.1694H13.5137C12.4856 14.1694 11.6493 13.3331 11.6493 12.3051C11.6493 11.277 12.4856 10.4407 13.5137 10.4407H23.7828C24.8108 10.4407 25.6471 11.277 25.6471 12.3051C25.6471 13.3331 24.8107 14.1694 23.7827 14.1694ZM41.2831 47.3595L28.2416 34.3179L29.4937 33.0658C32.1047 33.1563 34.6332 32.1648 36.4915 30.3066L40.4539 26.3442L47.8429 33.7331L41.2831 47.3595Z" fill="#FF9F43"/>
<path d="M49.714 32.8419L41.8351 24.963L44.8614 21.9363C46.3497 20.4478 46.3497 18.0259 44.8614 16.5375C44.3051 15.9812 43.6075 15.6178 42.8494 15.4807C43.0289 15.0338 43.123 14.552 43.123 14.0558C43.123 13.0362 42.7259 12.0775 42.0049 11.3564C41.404 10.7554 40.6507 10.3971 39.8683 10.2814C39.9943 9.89939 40.0597 9.49559 40.0597 9.08162C40.0597 8.062 39.6626 7.10331 38.9416 6.38231C38.2206 5.66122 37.2619 5.26415 36.2422 5.26415C36.2122 5.26415 36.1823 5.26444 36.1524 5.26513C36.2457 4.18085 35.8782 3.06415 35.0503 2.23613C33.5618 0.747655 31.1399 0.747655 29.6514 2.23613L28.9065 2.98105C28.7321 2.29941 28.378 1.67422 27.8675 1.16357C27.1171 0.41328 26.1194 0 25.0581 0C23.9969 0 22.9991 0.41328 22.2487 1.16367L20.6066 2.80566H17.3548C15.2498 2.80566 13.5373 4.51816 13.5373 6.62313C13.5373 7.29999 13.7151 7.93573 14.0254 8.48748H13.5137C11.4087 8.48748 9.69619 10.2 9.69619 12.305C9.69619 13.8371 10.6039 15.1605 11.9095 15.7677C11.4606 16.3936 11.1953 17.1595 11.1953 17.9868C11.1953 19.515 12.0983 20.8356 13.3985 21.445C12.9478 22.0717 12.6811 22.8394 12.6811 23.6686C12.6811 24.0833 12.7485 24.4822 12.8713 24.8563L0.286054 37.4416C0.101387 37.6264 -0.0016404 37.8774 1.97568e-05 38.1385C0.00177757 38.3997 0.108027 38.6493 0.295039 38.8317L11.4734 49.7229C11.6632 49.9077 11.9091 49.9999 12.1549 49.9999C12.405 49.9999 12.6549 49.9044 12.8454 49.7139L17.7931 44.7663C18.1744 44.385 18.1745 43.7666 17.7931 43.3852C17.4116 43.0039 16.7933 43.0039 16.412 43.3852L12.146 47.6512L2.36671 38.1231L13.967 26.5228C14.6413 27.1216 15.5279 27.4863 16.4985 27.4863H20.7978C22.9028 27.4863 24.6153 25.7738 24.6153 23.6688C24.6153 22.8396 24.3487 22.0718 23.8979 21.4452C25.198 20.8358 26.101 19.5152 26.101 17.987C26.101 17.1597 25.8357 16.3938 25.3869 15.7679C26.6925 15.1607 27.6002 13.8373 27.6002 12.3052C27.6002 10.8841 26.8191 9.64275 25.6642 8.98563L31.0325 3.61747C31.3845 3.26533 31.8528 3.07138 32.3507 3.07138C32.8488 3.07138 33.317 3.26533 33.6691 3.61747C34.3961 4.34433 34.3961 5.52714 33.6691 6.25409L32.2336 7.69168C31.8564 8.07508 31.8601 8.69119 32.2419 9.07C32.6236 9.44871 33.2398 9.44754 33.6201 9.06727L34.9238 7.76356C35.6506 7.03671 36.8334 7.03661 37.5604 7.76356C38.2873 8.49051 38.2873 9.67332 37.5604 10.4002L35.3016 12.661C34.9209 13.0427 34.9213 13.6606 35.3028 14.0417C35.6841 14.4225 36.3021 14.4224 36.6835 14.0413L37.9871 12.7377C38.7139 12.0107 39.8966 12.0107 40.6237 12.7377C40.9757 13.0897 41.1697 13.558 41.1697 14.0559C41.1697 14.554 40.9757 15.0221 40.6237 15.3743L38.1584 17.8418C37.7775 18.2234 37.7779 18.8415 38.1593 19.2225C38.5408 19.6036 39.1588 19.6035 39.5401 19.2222L40.8438 17.9186C41.1958 17.5665 41.6641 17.3725 42.1622 17.3725C42.6601 17.3725 43.1284 17.5665 43.4804 17.9186C44.2074 18.6455 44.2074 19.8283 43.4804 20.5552L35.1106 28.9255C33.5501 30.4861 31.3934 31.2759 29.1945 31.0921C28.9084 31.0681 28.6259 31.1716 28.4227 31.3747L22.653 37.1445C22.2716 37.5258 22.2716 38.1442 22.653 38.5256C22.8437 38.7163 23.0936 38.8116 23.3435 38.8116C23.5934 38.8116 23.8434 38.7162 24.0341 38.5256L26.8606 35.6991L40.8755 49.714C41.0602 49.8986 41.3092 50 41.5661 50C41.6204 50 41.6752 49.9955 41.7297 49.9861C42.0417 49.9331 42.3087 49.7321 42.4459 49.447L49.9033 33.9561C50.0833 33.5822 50.0074 33.1354 49.714 32.8419ZM23.6299 2.54472C24.0113 2.16318 24.5186 1.95312 25.0582 1.95312C25.5977 1.95312 26.105 2.16328 26.4864 2.54482C26.8678 2.92636 27.0781 3.43359 27.0781 3.97304C27.0781 4.5123 26.8681 5.01933 26.487 5.40077L24.0643 7.82332C23.3949 8.49286 22.3668 8.60946 21.5643 8.10721C21.0397 7.77889 20.6989 7.23788 20.6291 6.62294C20.5593 6.008 20.7702 5.40438 21.2078 4.96679L23.6299 2.54472ZM17.3549 4.75888H19.0149C18.7235 5.40224 18.606 6.11854 18.6884 6.84335C18.7558 7.43739 18.9525 7.99598 19.2569 8.48758H17.3549C16.3268 8.48758 15.4905 7.65125 15.4905 6.62323C15.4905 5.5952 16.3268 4.75888 17.3549 4.75888ZM20.7978 25.5332H16.4985C15.4705 25.5332 14.6342 24.6968 14.6342 23.6688C14.6342 22.6408 15.4705 21.8044 16.4985 21.8044H20.7978C21.8259 21.8044 22.6622 22.6408 22.6622 23.6688C22.6622 24.6968 21.8259 25.5332 20.7978 25.5332ZM22.2837 19.8513H15.0128C13.9848 19.8513 13.1484 19.015 13.1484 17.987C13.1484 16.959 13.9848 16.1226 15.0128 16.1226H22.2837C23.3117 16.1226 24.148 16.959 24.148 17.987C24.148 19.015 23.3117 19.8513 22.2837 19.8513ZM23.7827 14.1694H13.5137C12.4856 14.1694 11.6493 13.3331 11.6493 12.3051C11.6493 11.277 12.4856 10.4407 13.5137 10.4407H23.7828C24.8108 10.4407 25.6471 11.277 25.6471 12.3051C25.6471 13.3331 24.8107 14.1694 23.7827 14.1694ZM41.2831 47.3595L28.2416 34.3179L29.4937 33.0658C32.1047 33.1563 34.6332 32.1648 36.4915 30.3066L40.4539 26.3442L47.8429 33.7331L41.2831 47.3595Z" stroke="#FF9F43" stroke-width="2" mask="url(#path-1-outside-1_862_587)"/>
<path d="M20.2363 41.9192C20.7757 41.9192 21.2129 41.482 21.2129 40.9426C21.2129 40.4033 20.7757 39.9661 20.2363 39.9661C19.697 39.9661 19.2598 40.4033 19.2598 40.9426C19.2598 41.482 19.697 41.9192 20.2363 41.9192Z" fill="#FF9F43"/>
</g>
<defs>
<clipPath id="clip0_862_587">
<rect width="50" height="50" fill="white"/>
</clipPath>
</defs>
</svg>
