<svg width="50" height="50" viewBox="0 0 50 50" fill="none" xmlns="http://www.w3.org/2000/svg">
<path d="M30.7292 24.5833L39.0625 19.7917L30.7292 15L22.3958 19.7917L30.7292 24.5833ZM30.7292 30.9375L36.4583 27.6042V23.2292L30.7292 26.5625L25 23.2292V27.6042L30.7292 30.9375ZM42.7604 41.6667H31.3021C31.3021 41.1458 31.2847 40.625 31.25 40.1042C31.2153 39.5833 31.1632 39.0625 31.0938 38.5417H42.7604V11.4583H7.34375V14.5833C6.82292 14.5139 6.30208 14.4618 5.78125 14.4271C5.26042 14.3924 4.73958 14.375 4.21875 14.375V11.4583C4.21875 10.599 4.52483 9.8632 5.13698 9.25105C5.74878 8.63925 6.48438 8.33334 7.34375 8.33334H42.7604C43.6198 8.33334 44.3556 8.63925 44.9677 9.25105C45.5795 9.8632 45.8854 10.599 45.8854 11.4583V38.5417C45.8854 39.4011 45.5795 40.1366 44.9677 40.7484C44.3556 41.3606 43.6198 41.6667 42.7604 41.6667ZM4.21875 41.6667V36.25C5.66563 36.25 6.89531 36.7766 7.90781 37.8297C8.92066 38.8832 9.42708 40.1622 9.42708 41.6667H4.21875ZM14.6354 41.6667C14.6354 38.7271 13.6285 36.2214 11.6146 34.1495C9.60069 32.0776 7.13542 31.0417 4.21875 31.0417V27.9167C7.99097 27.9167 11.191 29.2622 13.8188 31.9531C16.4465 34.6441 17.7604 37.882 17.7604 41.6667H14.6354ZM22.9688 41.6667C22.9688 39.0625 22.4826 36.6059 21.5104 34.2969C20.5382 31.9879 19.2014 29.974 17.5 28.2552C15.7986 26.5365 13.8108 25.1823 11.5365 24.1927C9.26215 23.2031 6.82292 22.7083 4.21875 22.7083V19.5833C7.23958 19.5833 10.0781 20.1649 12.7344 21.3281C15.3906 22.4913 17.7083 24.0712 19.6875 26.0677C21.6667 28.0642 23.2292 30.408 24.375 33.099C25.5208 35.7899 26.0938 38.6458 26.0938 41.6667H22.9688Z" fill="#377DFF"/>
</svg>
