<svg width="50" height="50" viewBox="0 0 50 50" fill="none" xmlns="http://www.w3.org/2000/svg">
<path opacity="0.7" d="M28.1247 28.125C26.3886 28.125 24.9129 27.5174 23.6976 26.3021C22.4823 25.0868 21.8747 23.6111 21.8747 21.875C21.8747 20.1389 22.4823 18.6632 23.6976 17.4479C24.9129 16.2326 26.3886 15.625 28.1247 15.625C29.8608 15.625 31.3365 16.2326 32.5518 17.4479C33.767 18.6632 34.3747 20.1389 34.3747 21.875C34.3747 23.6111 33.767 25.0868 32.5518 26.3021C31.3365 27.5174 29.8608 28.125 28.1247 28.125ZM11.458 35.4167C10.5986 35.4167 9.86304 35.1106 9.25124 34.4984C8.63908 33.8866 8.33301 33.151 8.33301 32.2917V11.4583C8.33301 10.599 8.63908 9.8632 9.25124 9.25105C9.86304 8.63925 10.5986 8.33334 11.458 8.33334H44.7913C45.6507 8.33334 46.3865 8.63925 46.9986 9.25105C47.6104 9.8632 47.9163 10.599 47.9163 11.4583V32.2917C47.9163 33.151 47.6104 33.8866 46.9986 34.4984C46.3865 35.1106 45.6507 35.4167 44.7913 35.4167H11.458ZM16.6663 32.2917H39.583C39.583 30.8333 40.0865 29.6007 41.0934 28.5938C42.1004 27.5868 43.333 27.0833 44.7913 27.0833V16.6667C43.333 16.6667 42.1004 16.1632 41.0934 15.1563C40.0865 14.1493 39.583 12.9167 39.583 11.4583H16.6663C16.6663 12.9167 16.1629 14.1493 15.1559 15.1563C14.149 16.1632 12.9163 16.6667 11.458 16.6667V27.0833C12.9163 27.0833 14.149 27.5868 15.1559 28.5938C16.1629 29.6007 16.6663 30.8333 16.6663 32.2917ZM41.6663 41.6667H5.20801C4.34863 41.6667 3.61304 41.3606 3.00124 40.7484C2.38908 40.1366 2.08301 39.401 2.08301 38.5417V14.5833H5.20801V38.5417H41.6663V41.6667Z" fill="#E30400"/>
</svg>
