<svg width="50" height="50" viewBox="0 0 50 50" fill="none" xmlns="http://www.w3.org/2000/svg">
<path d="M34.792 30.2083L43.7503 22.5L48.1774 22.8646L38.3337 31.3021L41.3024 44.1146L37.4482 41.7708L34.792 30.2083ZM29.9482 15.1562L26.9795 8.17707L28.6462 4.16666L33.4378 15.4687L29.9482 15.1562ZM13.6982 37.2396L21.8753 32.3437L30.0524 37.2917L27.8649 28.0208L35.0524 21.7708L25.5732 20.9375L21.8753 12.1875L18.1774 20.8854L8.69824 21.7187L15.8857 27.9687L13.6982 37.2396ZM9.01074 43.75L12.3962 29.1146L1.04199 19.2708L16.042 17.9687L21.8753 4.16666L27.7087 17.9687L42.7087 19.2708L31.3545 29.1146L34.7399 43.75L21.8753 35.9896L9.01074 43.75Z" fill="#7367F0"/>
</svg>
