<svg width="93" height="28" viewBox="0 0 93 28" fill="none" xmlns="http://www.w3.org/2000/svg">
<g filter="url(#filter0_d_564_1418)">
<path d="M9.4 19V5.2H4.216V2.008H18.064V5.2H12.856V19H9.4ZM19.5934 19V6.352H22.9534V19H19.5934ZM21.2734 5.08C20.6494 5.08 20.1454 4.896 19.7614 4.528C19.3774 4.144 19.1854 3.656 19.1854 3.064C19.1854 2.44 19.3854 1.936 19.7854 1.552C20.1854 1.168 20.6894 0.975999 21.2974 0.975999C21.8574 0.975999 22.3374 1.168 22.7374 1.552C23.1534 1.92 23.3614 2.416 23.3614 3.04C23.3614 3.648 23.1614 4.144 22.7614 4.528C22.3774 4.896 21.8814 5.08 21.2734 5.08ZM25.6169 19V6.352H28.6409L28.9289 7.768C29.2489 7.32 29.6009 6.984 29.9849 6.76C30.3849 6.52 30.7849 6.36 31.1849 6.28C31.5849 6.2 31.9529 6.16 32.2889 6.16C33.0409 6.16 33.7049 6.304 34.2809 6.592C34.8569 6.88 35.3209 7.344 35.6729 7.984C36.0089 7.52 36.3769 7.16 36.7769 6.904C37.1769 6.632 37.6009 6.44 38.0489 6.328C38.4969 6.216 38.9529 6.16 39.4169 6.16C40.3929 6.16 41.1769 6.368 41.7689 6.784C42.3769 7.184 42.8169 7.744 43.0889 8.464C43.3769 9.184 43.5209 10.024 43.5209 10.984V19H40.1609V11.872C40.1609 11.584 40.1449 11.288 40.1129 10.984C40.0809 10.68 40.0009 10.392 39.8729 10.12C39.7609 9.848 39.5849 9.624 39.3449 9.448C39.1209 9.272 38.8009 9.184 38.3849 9.184C37.9849 9.184 37.6489 9.272 37.3769 9.448C37.1049 9.624 36.8889 9.864 36.7289 10.168C36.5689 10.456 36.4489 10.776 36.3689 11.128C36.3049 11.464 36.2729 11.808 36.2729 12.16V19H32.9129V11.848C32.9129 11.576 32.8969 11.288 32.8649 10.984C32.8329 10.68 32.7609 10.392 32.6489 10.12C32.5369 9.848 32.3529 9.624 32.0969 9.448C31.8569 9.272 31.5209 9.184 31.0889 9.184C30.4969 9.184 30.0409 9.36 29.7209 9.712C29.4169 10.048 29.2169 10.456 29.1209 10.936C29.0249 11.4 28.9769 11.832 28.9769 12.232V19H25.6169ZM51.8384 19.168C50.5104 19.168 49.3824 18.904 48.4544 18.376C47.5264 17.848 46.8144 17.104 46.3184 16.144C45.8224 15.168 45.5744 14.032 45.5744 12.736C45.5744 11.424 45.8304 10.28 46.3424 9.304C46.8544 8.312 47.5744 7.536 48.5024 6.976C49.4464 6.416 50.5584 6.136 51.8384 6.136C52.7984 6.136 53.6384 6.296 54.3584 6.616C55.0944 6.936 55.7104 7.384 56.2064 7.96C56.7184 8.536 57.0944 9.208 57.3344 9.976C57.5904 10.728 57.7104 11.544 57.6944 12.424C57.6944 12.648 57.6864 12.864 57.6704 13.072C57.6544 13.28 57.6224 13.488 57.5744 13.696H48.9104C48.9584 14.176 49.0944 14.616 49.3184 15.016C49.5424 15.416 49.8544 15.736 50.2544 15.976C50.6704 16.2 51.1824 16.312 51.7904 16.312C52.1904 16.312 52.5584 16.272 52.8944 16.192C53.2304 16.096 53.5184 15.952 53.7584 15.76C53.9984 15.568 54.1664 15.344 54.2624 15.088H57.5744C57.3664 16.032 56.9744 16.808 56.3984 17.416C55.8384 18.024 55.1584 18.472 54.3584 18.76C53.5584 19.032 52.7184 19.168 51.8384 19.168ZM48.9824 11.344H54.4784C54.4624 10.912 54.3504 10.512 54.1424 10.144C53.9504 9.76 53.6544 9.456 53.2544 9.232C52.8704 8.992 52.3744 8.872 51.7664 8.872C51.1584 8.872 50.6464 8.992 50.2304 9.232C49.8304 9.472 49.5264 9.784 49.3184 10.168C49.1264 10.536 49.0144 10.928 48.9824 11.344ZM59.8591 19V2.008H63.2191V19H59.8591ZM65.8825 19V6.352H69.2425V19H65.8825ZM67.5625 5.08C66.9385 5.08 66.4345 4.896 66.0505 4.528C65.6665 4.144 65.4745 3.656 65.4745 3.064C65.4745 2.44 65.6745 1.936 66.0745 1.552C66.4745 1.168 66.9785 0.975999 67.5865 0.975999C68.1465 0.975999 68.6265 1.168 69.0265 1.552C69.4425 1.92 69.6505 2.416 69.6505 3.04C69.6505 3.648 69.4505 4.144 69.0505 4.528C68.6665 4.896 68.1705 5.08 67.5625 5.08ZM72.9619 19V9.352H71.0659V6.352H72.9619V5.2C72.9619 4.24 73.1139 3.456 73.4179 2.848C73.7379 2.224 74.2179 1.768 74.8579 1.48C75.5139 1.192 76.3459 1.048 77.3539 1.048H79.4419V4.024H77.7859C77.4179 4.024 77.1219 4.08 76.8979 4.192C76.6899 4.304 76.5459 4.48 76.4659 4.72C76.3859 4.944 76.3459 5.224 76.3459 5.56V6.352H79.4419V9.352H76.3459V19H72.9619ZM86.8529 19C85.7969 19 84.9089 18.872 84.1889 18.616C83.4849 18.36 82.9489 17.928 82.5809 17.32C82.2289 16.696 82.0529 15.848 82.0529 14.776V9.352H80.1809V6.352H82.0529V2.968H85.4129V6.352H88.1729V9.352H85.4129V14.296C85.4129 14.824 85.5089 15.24 85.7009 15.544C85.8929 15.848 86.3249 16 86.9969 16H88.0529V19H86.8529Z" fill="white"/>
</g>
<defs>
<filter id="filter0_d_564_1418" x="0.21582" y="0.976074" width="91.957" height="26.1919" filterUnits="userSpaceOnUse" color-interpolation-filters="sRGB">
<feFlood flood-opacity="0" result="BackgroundImageFix"/>
<feColorMatrix in="SourceAlpha" type="matrix" values="0 0 0 0 0 0 0 0 0 0 0 0 0 0 0 0 0 0 127 0" result="hardAlpha"/>
<feOffset dy="4"/>
<feGaussianBlur stdDeviation="2"/>
<feComposite in2="hardAlpha" operator="out"/>
<feColorMatrix type="matrix" values="0 0 0 0 0 0 0 0 0 0 0 0 0 0 0 0 0 0 0.25 0"/>
<feBlend mode="normal" in2="BackgroundImageFix" result="effect1_dropShadow_564_1418"/>
<feBlend mode="normal" in="SourceGraphic" in2="effect1_dropShadow_564_1418" result="shape"/>
</filter>
</defs>
</svg>
