<svg width="36" height="35" viewBox="0 0 36 35" fill="none" xmlns="http://www.w3.org/2000/svg">
<path d="M34.3847 17.7408L34.6499 17.4214L34.3847 17.102L30.9669 12.9861L31.4436 7.53802L31.4811 7.10849L31.0618 7.00817L26.0236 5.80288L23.3816 1.0915L23.1573 0.691513L22.7394 0.880485L18 3.02393L13.2606 0.880485L12.8433 0.691767L12.6188 1.09091L9.97714 5.78675L4.93955 6.97721L4.51886 7.07662L4.55644 7.50727L5.03316 12.9712L1.61477 17.1026L1.35057 17.422L1.61533 17.7408L5.03312 21.8568L4.55644 27.3202L4.51897 27.7496L4.93821 27.8499L9.97674 29.0553L12.6188 33.7519L12.8439 34.1521L13.2618 33.9618L18.0007 31.8039L22.7394 33.947L23.1567 34.1357L23.3812 33.7366L26.0233 29.04L31.0618 27.8346L31.4811 27.7343L31.4436 27.3048L30.9669 21.8567L34.3847 17.7408ZM10.3836 18.8159L11.8465 17.2752L14.8585 20.4611L15.2217 20.8452L15.585 20.4613L23.7315 11.8519L25.1946 13.3929L15.2218 23.9249L10.3836 18.8159Z" fill="#1E90FF" stroke="black"/>
</svg>
