<svg width="19" height="20" viewBox="0 0 19 20" fill="none" xmlns="http://www.w3.org/2000/svg">
<path d="M9.50004 15.5416C11.0438 15.5416 12.3533 15.004 13.4287 13.9286C14.504 12.8533 15.0417 11.5437 15.0417 9.99998C15.0417 8.45623 14.504 7.14668 13.4287 6.07133C12.3533 4.99599 11.0438 4.45831 9.50004 4.45831V9.99998L5.71983 13.9583C6.20803 14.4729 6.78199 14.8654 7.44171 15.1359C8.10143 15.4064 8.78754 15.5416 9.50004 15.5416ZM9.50004 17.9166C8.4181 17.9166 7.39553 17.7088 6.43233 17.2932C5.46914 16.8776 4.62799 16.3102 3.90889 15.5911C3.1898 14.872 2.62244 14.0309 2.20681 13.0677C1.79119 12.1045 1.58337 11.0819 1.58337 9.99998C1.58337 8.90484 1.79119 7.87567 2.20681 6.91248C2.62244 5.94929 3.1898 5.11144 3.90889 4.39894C4.62799 3.68644 5.46914 3.12238 6.43233 2.70675C7.39553 2.29113 8.4181 2.08331 9.50004 2.08331C10.5952 2.08331 11.6243 2.29113 12.5875 2.70675C13.5507 3.12238 14.3886 3.68644 15.1011 4.39894C15.8136 5.11144 16.3776 5.94929 16.7933 6.91248C17.2089 7.87567 17.4167 8.90484 17.4167 9.99998C17.4167 11.0819 17.2089 12.1045 16.7933 13.0677C16.3776 14.0309 15.8136 14.872 15.1011 15.5911C14.3886 16.3102 13.5507 16.8776 12.5875 17.2932C11.6243 17.7088 10.5952 17.9166 9.50004 17.9166ZM9.50004 16.7291C11.3737 16.7291 12.9636 16.0727 14.2698 14.7599C15.5761 13.447 16.2292 11.8604 16.2292 9.99998C16.2292 8.12637 15.5761 6.53644 14.2698 5.23019C12.9636 3.92394 11.3737 3.27081 9.50004 3.27081C7.63962 3.27081 6.05299 3.92394 4.74014 5.23019C3.4273 6.53644 2.77087 8.12637 2.77087 9.99998C2.77087 11.8604 3.4273 13.447 4.74014 14.7599C6.05299 16.0727 7.63962 16.7291 9.50004 16.7291Z" fill="#434343"/>
</svg>
