<svg width="29" height="28" viewBox="0 0 29 28" fill="none" xmlns="http://www.w3.org/2000/svg">
<g clip-path="url(#clip0_895_831)">
<path d="M0.5 21V19.4542C0.5 18.7042 0.903472 18.0938 1.71042 17.6231C2.51736 17.1521 3.57592 16.9167 4.88608 16.9167C5.12253 16.9167 5.34993 16.9215 5.56829 16.9312C5.78665 16.941 6.00278 16.9619 6.21667 16.994C6.06111 17.3313 5.94444 17.6733 5.86667 18.0198C5.78889 18.3661 5.75 18.7275 5.75 19.1042V21H0.5ZM7.5 21V19.1042C7.5 18.4819 7.67014 17.9132 8.01042 17.3979C8.35069 16.8826 8.83194 16.4306 9.45417 16.0417C10.0764 15.6528 10.8201 15.3611 11.6854 15.1667C12.5507 14.9722 13.4889 14.875 14.5 14.875C15.5306 14.875 16.4785 14.9722 17.3438 15.1667C18.209 15.3611 18.9528 15.6528 19.575 16.0417C20.1972 16.4306 20.6736 16.8826 21.0042 17.3979C21.3347 17.9132 21.5 18.4819 21.5 19.1042V21H7.5ZM23.25 21V19.1042C23.25 18.718 23.216 18.3541 23.1479 18.0125C23.0799 17.6708 22.9681 17.3321 22.8125 16.9963C23.0264 16.9627 23.2419 16.941 23.4591 16.9312C23.6763 16.9215 23.8983 16.9167 24.125 16.9167C25.4375 16.9167 26.4948 17.1478 27.2969 17.61C28.099 18.0722 28.5 18.6869 28.5 19.4542V21H23.25ZM9.25 19.25H19.75V19.075C19.75 18.3556 19.259 17.7674 18.2771 17.3104C17.2951 16.8535 16.0361 16.625 14.5 16.625C12.9639 16.625 11.7049 16.8535 10.7229 17.3104C9.74097 17.7674 9.25 18.3653 9.25 19.1042V19.25ZM4.86246 16.0417C4.30693 16.0417 3.82986 15.8418 3.43125 15.442C3.03264 15.042 2.83333 14.5614 2.83333 14C2.83333 13.4361 3.03322 12.9549 3.433 12.5563C3.83297 12.1576 4.31364 11.9583 4.875 11.9583C5.43889 11.9583 5.92014 12.1576 6.31875 12.5563C6.71736 12.9549 6.91667 13.4403 6.91667 14.0125C6.91667 14.5681 6.71736 15.0451 6.31875 15.4438C5.92014 15.8424 5.43471 16.0417 4.86246 16.0417ZM24.1125 16.0417C23.5569 16.0417 23.0799 15.8418 22.6812 15.442C22.2826 15.042 22.0833 14.5614 22.0833 14C22.0833 13.4361 22.2832 12.9549 22.683 12.5563C23.083 12.1576 23.5636 11.9583 24.125 11.9583C24.6889 11.9583 25.1701 12.1576 25.5688 12.5563C25.9674 12.9549 26.1667 13.4403 26.1667 14.0125C26.1667 14.5681 25.9674 15.0451 25.5688 15.4438C25.1701 15.8424 24.6847 16.0417 24.1125 16.0417ZM14.5 14C13.5278 14 12.7014 13.6597 12.0208 12.9792C11.3403 12.2986 11 11.4722 11 10.5C11 9.50833 11.3403 8.67708 12.0208 8.00625C12.7014 7.33542 13.5278 7 14.5 7C15.4917 7 16.3229 7.33542 16.9937 8.00625C17.6646 8.67708 18 9.50833 18 10.5C18 11.4722 17.6646 12.2986 16.9937 12.9792C16.3229 13.6597 15.4917 14 14.5 14ZM14.5102 12.25C15.009 12.25 15.4236 12.0813 15.7542 11.744C16.0847 11.4066 16.25 10.9885 16.25 10.4898C16.25 9.99104 16.0833 9.57639 15.7498 9.24583C15.4163 8.91528 15.0031 8.75 14.5102 8.75C14.0173 8.75 13.6007 8.91674 13.2604 9.25021C12.9201 9.58368 12.75 9.99688 12.75 10.4898C12.75 10.9827 12.9187 11.3993 13.256 11.7396C13.5934 12.0799 14.0115 12.25 14.5102 12.25Z" fill="#28A745"/>
</g>
<defs>
<clipPath id="clip0_895_831">
<rect width="28" height="28" fill="white" transform="translate(0.5)"/>
</clipPath>
</defs>
</svg>
