<svg width="29" height="28" viewBox="0 0 29 28" fill="none" xmlns="http://www.w3.org/2000/svg">
<path d="M25 8.07917V22.75C25 23.2167 24.825 23.625 24.475 23.975C24.125 24.325 23.7167 24.5 23.25 24.5H5.75C5.28333 24.5 4.875 24.325 4.525 23.975C4.175 23.625 4 23.2167 4 22.75V5.25C4 4.78333 4.175 4.375 4.525 4.025C4.875 3.675 5.28333 3.5 5.75 3.5H20.4208L25 8.07917ZM23.25 8.86667L19.6333 5.25H5.75V22.75H23.25V8.86667ZM14.493 20.8542C15.3338 20.8542 16.0507 20.56 16.6438 19.9716C17.2368 19.383 17.5333 18.6684 17.5333 17.8278C17.5333 16.9871 17.2391 16.2701 16.6508 15.6771C16.0622 15.084 15.3476 14.7875 14.507 14.7875C13.6662 14.7875 12.9493 15.0817 12.3562 15.6701C11.7632 16.2587 11.4667 16.9733 11.4667 17.8138C11.4667 18.6546 11.7609 19.3715 12.3493 19.9646C12.9378 20.5576 13.6524 20.8542 14.493 20.8542ZM7.29583 10.9667H17.7375V6.79583H7.29583V10.9667ZM5.75 8.86667V22.75V5.25V8.86667Z" fill="#007BFF"/>
</svg>
