<svg width="29" height="28" viewBox="0 0 29 28" fill="none" xmlns="http://www.w3.org/2000/svg">
<path d="M2.83301 22.1667V20.4167H14.4997V22.1667H2.83301ZM2.83301 16.0417V14.2917H8.66634V16.0417H2.83301ZM2.83301 9.91667V8.16667H8.66634V9.91667H2.83301ZM24.9413 22.1667L20.2747 17.5C19.7691 17.8889 19.2247 18.1806 18.6413 18.375C18.058 18.5694 17.4552 18.6667 16.833 18.6667C15.2191 18.6667 13.8434 18.0979 12.7059 16.9604C11.5684 15.8229 10.9997 14.4472 10.9997 12.8333C10.9997 11.2194 11.5684 9.84375 12.7059 8.70625C13.8434 7.56875 15.2191 7 16.833 7C18.4469 7 19.8226 7.56875 20.9601 8.70625C22.0976 9.84375 22.6663 11.2194 22.6663 12.8333C22.6663 13.4556 22.5691 14.0583 22.3747 14.6417C22.1802 15.225 21.8886 15.7694 21.4997 16.275L26.1663 20.9417L24.9413 22.1667ZM16.826 16.9167C17.9585 16.9167 18.9233 16.5204 19.7205 15.7278C20.5177 14.9351 20.9163 13.9726 20.9163 12.8403C20.9163 11.7079 20.5201 10.7431 19.7275 9.94583C18.9348 9.14861 17.9723 8.75 16.84 8.75C15.7076 8.75 14.7427 9.14628 13.9455 9.93883C13.1483 10.7316 12.7497 11.6941 12.7497 12.8263C12.7497 13.9588 13.146 14.9236 13.9385 15.7208C14.7313 16.5181 15.6938 16.9167 16.826 16.9167Z" fill="#FD7E14"/>
</svg>
