<svg width="29" height="28" viewBox="0 0 29 28" fill="none" xmlns="http://www.w3.org/2000/svg">
<path d="M26.1663 25.6374L21.5288 20.9999H9.24967C8.76842 20.9999 8.35649 20.8285 8.01388 20.4857C7.67108 20.1431 7.49967 19.7312 7.49967 19.2499V16.9166H20.333C20.8143 16.9166 21.2263 16.7452 21.5691 16.4024C21.9117 16.0598 22.083 15.6478 22.083 15.1666V6.99992H24.4163C24.8976 6.99992 25.3096 7.17122 25.6524 7.51383C25.995 7.85664 26.1663 8.26867 26.1663 8.74992V25.6374ZM4.58301 15.6041L6.77051 13.4166H18.583V4.08325H4.58301V15.6041ZM2.83301 19.8333V4.08325C2.83301 3.602 3.00441 3.18997 3.34722 2.84717C3.68983 2.50456 4.10176 2.33325 4.58301 2.33325H18.583C19.0643 2.33325 19.4763 2.50456 19.8191 2.84717C20.1617 3.18997 20.333 3.602 20.333 4.08325V13.4166C20.333 13.8978 20.1617 14.3098 19.8191 14.6524C19.4763 14.9952 19.0643 15.1666 18.583 15.1666H7.49967L2.83301 19.8333Z" fill="#DC3545"/>
</svg>
