<svg width="29" height="29" viewBox="0 0 29 29" fill="none" xmlns="http://www.w3.org/2000/svg">
<path d="M14.5003 27.3334C12.3225 27.3334 10.2225 26.6917 8.20033 25.4084C6.1781 24.1251 4.58366 22.657 3.41699 21.0042V25.0001H1.66699V18.0001H8.66699V19.7501H4.67116C5.66283 21.2473 7.07741 22.5938 8.91491 23.7897C10.7524 24.9855 12.6142 25.5834 14.5003 25.5834C16.017 25.5834 17.451 25.2917 18.8024 24.7084C20.1538 24.1251 21.3302 23.3327 22.3316 22.3313C23.333 21.3299 24.1253 20.1536 24.7087 18.8022C25.292 17.4508 25.5837 16.0167 25.5837 14.5001H27.3337C27.3337 16.2695 26.9982 17.932 26.3274 19.4876C25.6566 21.0431 24.7378 22.4042 23.5712 23.5709C22.4045 24.7376 21.0434 25.6563 19.4878 26.3272C17.9323 26.998 16.2698 27.3334 14.5003 27.3334ZM13.6545 22.8709V21.2959C12.7795 21.0626 12.0455 20.6883 11.4524 20.173C10.8594 19.6577 10.3587 18.9529 9.95033 18.0584L11.4378 17.5626C11.6712 18.3015 12.0844 18.8848 12.6774 19.3126C13.2705 19.7404 13.9462 19.9542 14.7045 19.9542C15.4823 19.9542 16.1288 19.7647 16.6441 19.3855C17.1594 19.0063 17.417 18.5056 17.417 17.8834C17.417 17.2417 17.1739 16.7022 16.6878 16.2647C16.2017 15.8272 15.3073 15.3362 14.0045 14.7917C12.8378 14.3056 11.9628 13.7806 11.3795 13.2167C10.7962 12.6529 10.5045 11.8945 10.5045 10.9417C10.5045 10.0862 10.7962 9.35703 11.3795 8.75425C11.9628 8.15147 12.7406 7.78203 13.7128 7.64591V6.15841H15.317V7.64591C16.0559 7.72369 16.6975 7.95703 17.242 8.34591C17.7864 8.7348 18.2239 9.26953 18.5545 9.95008L17.1545 10.6209C16.8628 10.0765 16.5031 9.66814 16.0753 9.39591C15.6475 9.12369 15.142 8.98758 14.5587 8.98758C13.8003 8.98758 13.2024 9.16258 12.7649 9.51258C12.3274 9.86258 12.1087 10.339 12.1087 10.9417C12.1087 11.564 12.3614 12.0598 12.867 12.4292C13.3725 12.7987 14.1892 13.2167 15.317 13.6834C16.6587 14.2473 17.6114 14.8404 18.1753 15.4626C18.7392 16.0848 19.0212 16.8917 19.0212 17.8834C19.0212 18.3695 18.9337 18.8167 18.7587 19.2251C18.5837 19.6334 18.3357 19.9834 18.0149 20.2751C17.6941 20.5667 17.3003 20.8049 16.8337 20.9897C16.367 21.1744 15.842 21.2959 15.2587 21.3542V22.8709H13.6545ZM1.66699 14.5001C1.66699 12.7306 2.00241 11.0681 2.67324 9.51258C3.34408 7.95703 4.26283 6.59591 5.42949 5.42925C6.59616 4.26258 7.95727 3.34383 9.51283 2.673C11.0684 2.00216 12.7309 1.66675 14.5003 1.66675C16.6781 1.66675 18.7781 2.30841 20.8003 3.59175C22.8225 4.87508 24.417 6.34314 25.5837 7.99591V4.00008H27.3337V11.0001H20.3337V9.25008H24.3295C23.3378 7.75286 21.9281 6.40633 20.1003 5.2105C18.2725 4.01466 16.4059 3.41675 14.5003 3.41675C12.9837 3.41675 11.5496 3.70841 10.1982 4.29175C8.84685 4.87508 7.67046 5.66744 6.66908 6.66883C5.66769 7.67022 4.87533 8.84661 4.29199 10.198C3.70866 11.5494 3.41699 12.9834 3.41699 14.5001H1.66699Z" fill="#FFC107"/>
</svg>
